<svg xmlns="http://www.w3.org/2000/svg" version="1.0" preserveAspectRatio="xMidYMid meet" viewBox="248 284 528.1 455.96">

<g transform="translate(0.000000,1024.000000) scale(0.100000,-0.100000)" fill="#000000" stroke="none">
<path d="M2480 5565 l0 -1835 135 0 135 0 2 1567 3 1567 207 -425 c114 -233 280 -572 369 -754 89 -181 194 -397 234 -480 40 -82 156 -319 257 -525 102 -206 238 -482 302 -613 l117 -238 106 3 106 3 39 75 c43 82 538 1089 538 1095 0 1 154 315 343 696 189 382 396 800 459 929 l117 235 0 -797 c1 -439 -2 -798 -6 -798 -5 1 -33 9 -63 20 -76 27 -216 27 -301 0 -172 -53 -295 -193 -335 -380 -69 -323 146 -663 704 -1111 68 -54 130 -99 139 -99 38 0 340 257 520 444 346 357 431 689 247 958 -92 135 -211 199 -385 206 -93 4 -113 1 -177 -21 l-72 -25 0 1069 0 1069 -158 0 -159 0 -81 -167 c-44 -93 -246 -501 -448 -908 -201 -407 -512 -1037 -691 -1400 -178 -363 -328 -663 -332 -668 -4 -4 -106 192 -226 435 -359 729 -1185 2414 -1276 2606 l-49 102 -160 0 -160 0 0 -1835z m3344 -530 c55 -23 111 -79 151 -151 41 -73 79 -99 130 -90 36 7 60 31 99 99 77 134 221 193 342 138 52 -24 108 -90 124 -147 46 -162 -52 -357 -303 -605 -104 -104 -268 -249 -281 -249 -3 0 -59 47 -123 104 -344 303 -492 530 -463 709 15 93 58 153 135 188 49 23 139 25 189 4z"/>
<path d="M6480 7265 l0 -135 505 0 506 0 -4 -1517 c-4 -1648 0 -1541 -57 -1735 -67 -224 -219 -440 -404 -572 -186 -133 -397 -196 -655 -196 -450 0 -803 208 -1012 594 -22 42 -43 76 -47 76 -4 0 -206 -125 -222 -137 -7 -6 66 -137 124 -223 69 -103 251 -283 357 -353 165 -110 346 -179 549 -212 122 -19 377 -20 495 0 278 45 513 159 708 344 214 204 348 457 409 771 l22 115 3 1658 4 1657 -641 0 -640 0 0 -135z"/>
</g>
</svg>